<?xml version="1.0" standalone="no"?>
<!DOCTYPE svg PUBLIC "-//W3C//DTD SVG 1.1//EN" "http://www.w3.org/Graphics/SVG/1.1/DTD/svg11.dtd" >
<svg xmlns="http://www.w3.org/2000/svg">
<metadata></metadata>
<defs>
<font id="slats_n_things_2normal" horiz-adv-x="1755" >
<font-face units-per-em="2048" ascent="1638" descent="-410" />
<missing-glyph horiz-adv-x="1024" />
<glyph horiz-adv-x="2048" />
<glyph horiz-adv-x="2048" />
<glyph unicode="&#xd;" horiz-adv-x="1024" />
<glyph unicode=" "  horiz-adv-x="1024" />
<glyph unicode="&#x09;" horiz-adv-x="1024" />
<glyph unicode="&#xa0;" horiz-adv-x="1024" />
<glyph unicode="0" d="M80 -410h67v2048h-67v-2048zM193 -410h73v2048h-73v-2048zM311 -410h72v2048h-72v-2048zM428 -410h74v2048h-74v-2048zM547 -410h71v2048h-71v-2048zM664 -410h73v2048h-73v-2048zM782 -410h72v2048h-72v-2048zM899 -410h74v2048h-74v-2048zM1018 -410h72v2048h-72v-2048 zM1135 -410h73v2048h-73v-2048zM1253 -410h72v2048h-72v-2048zM1370 -410h74v2048h-74v-2048zM1489 -410h72v2048h-72v-2048zM1608 -410h67v2048h-67v-2048z" />
<glyph unicode="1" d="M80 -88q0 -51 14.5 -96t40.5 -84l12 -15v1794l-12 -14q-55 -82 -55 -180v-1405zM193 -332l30 -22l43 -25v1987l-43 -25l-30 -24v-1891zM311 -395l27 -8l45 -5v2044l-45 -4l-27 -8v-2019zM428 -410h74v2048h-74v-2048zM547 -410h71v2048h-71v-2048zM664 -410h73v2048h-73 v-2048zM782 -410h72v2048h-72v-2048zM899 -410h74v2048h-74v-2048zM1018 -410h72v2048h-72v-2048zM1135 -410h73v2048h-73v-2048zM1253 -410h72v2048h-72v-2048zM1370 -408l47 5l27 8v2019l-27 8l-47 4v-2044zM1489 -379l43 25l29 22v1891l-29 24l-43 25v-1987zM1606 -283 l14 15q55 82 55 180v1405q0 51 -14 96t-41 84l-14 14v-1794z" />
<glyph unicode="2" d="M80 -410h67v2048h-67v-2048zM193 -410h73v2048h-73v-2048zM311 -410h72v809q-45 102 -45 215t43 209l2 6v809h-72v-2048zM428 -410h74v639l-6 4q-39 39 -66 80zM428 913q29 43 68 82l6 4v639h-74v-725zM547 190v-600h71v553l-43 25zM547 1038l28 23l43 24v553h-71v-600z M664 -410h73v506l-69 21zM664 1110l73 23v505h-73v-528zM782 84v-494h72v488zM782 1145l72 6v487h-72v-493zM899 78v-488h74v494zM899 1151l74 -6v493h-74v-487zM1018 96v-506h72v529zM1018 1133l69 -21l3 526h-72v-505zM1135 143v-553h73v600l-28 -22zM1135 1085l45 -24 l28 -23v600h-73v-553zM1253 229v-639h72v725q-16 -25 -30.5 -43t-34.5 -39zM1253 999l7 -4q25 -25 37 -42t28 -38v723h-72v-639zM1370 399v-809h74v2048h-74v-809l4 -6q43 -102 43 -209q0 -104 -43 -211zM1489 -410h72v2048h-72v-2048zM1608 -410h67v2048h-67v-2048z" />
<glyph unicode="3" d="M80 -88q0 -51 14.5 -96t40.5 -84l12 -15v1794l-12 -14q-55 -82 -55 -180v-1405zM193 -332l30 -22l43 -25v1987l-43 -25l-30 -24v-1891zM311 -395l27 -8l45 -5v807q-45 102 -45 215t43 209l2 6v807l-45 -4l-27 -8v-2019zM428 -410h74v639l-6 4q-39 39 -66 80zM428 913 q29 43 68 82l6 4v639h-74v-725zM547 190v-600h71v553l-43 25zM547 1038l28 23l43 24v553h-71v-600zM664 -410h73v506l-69 21zM664 1110l73 23v505h-73v-528zM782 84v-494h72v488zM782 1145l72 6v487h-72v-493zM899 78v-488h74v494zM899 1151l74 -6v493h-74v-487zM1018 96 v-506h72v529zM1018 1133l69 -21l3 526h-72v-505zM1135 143v-553h73v600l-28 -22zM1135 1085l45 -24l28 -23v600h-73v-553zM1253 229v-639h72v725l-65 -82zM1253 999l7 -4l65 -80v723h-72v-639zM1370 399v-807l47 5l27 8v2019l-27 8l-47 4v-807l4 -6q43 -102 43 -209 q0 -104 -43 -211zM1489 -379l43 25l29 22v1891l-29 24l-43 25v-1987zM1606 -283l14 15q55 82 55 180v1405q0 51 -14 96t-41 84l-14 14v-1794z" />
<glyph unicode="4" d="M80 -410h67v2048h-67v-2048zM193 -410h73v2048h-73v-2048zM311 -410h72v2048h-72v-2048zM428 -410h74v738l-10 30q-35 123 -35 256t35 256l10 31v737h-74v-2048zM547 215v-625h71v510l-38 50zM547 1014l33 65l38 49v510h-71v-624zM664 51v-461h73v408l-22 10zM664 1178 l51 41l22 12v407h-73v-460zM782 -25v-385h72v371l-61 10zM782 1253l11 4l61 11v370h-72v-385zM899 -39v-371h74v385l-10 -4zM899 1268l64 -11l10 -4v385h-74v-370zM1018 -2v-408h72v461l-50 -43zM1018 1231l22 -12l50 -41v460h-72v-407zM1135 100v-510h73v625l-34 -65z M1135 1128l39 -49l34 -65v624h-73v-510zM1253 328v-738h72v2048h-72v-737l11 -31q33 -117 32 -256q0 -139 -32 -256zM1370 -410h74v2048h-74v-2048zM1489 -410h72v2048h-72v-2048zM1608 -410h67v2048h-67v-2048z" />
<glyph unicode="5" d="M80 -88q0 -51 14.5 -96t40.5 -84l12 -15v1794l-12 -14q-55 -82 -55 -180v-1405zM193 -332l30 -22l43 -25v1987l-43 -25l-30 -24v-1891zM311 -395l27 -8l45 -5v2044l-45 -4l-27 -8v-2019zM428 -410h74v738l-13 30q-33 127 -32 256q0 129 32 256l13 31v737h-74v-2048z M547 215v-625h71v510l-38 50zM547 1014l33 65l38 49v510h-71v-624zM664 51v-461h73v408l-22 10zM664 1178l51 41l22 12v407h-73v-460zM782 -25v-385h72v371l-61 10zM782 1253l11 4l61 11v370h-72v-385zM899 -39v-371h74v385l-10 -4zM899 1268l64 -11l10 -4v385h-74v-370z M1018 -2v-408h72v461l-50 -43zM1018 1231l22 -12l50 -41v460h-72v-407zM1135 100v-510h73v625l-34 -65zM1135 1128l39 -49l34 -65v624h-73v-510zM1253 328v-738h72v2048h-72v-737l11 -31q33 -127 32 -256q0 -129 -32 -256zM1370 -408l47 5l27 8v2019l-27 8l-47 4v-2044z M1489 -379l43 25l29 22v1891l-29 24l-43 25v-1987zM1606 -283l14 15q55 82 55 180v1405q0 51 -14 96t-41 84l-14 14v-1794z" />
<glyph unicode="6" d="M80 -410h67v2048h-67v-2048zM193 -410h73v2048h-73v-2048zM311 -410h72v2048h-72v-2048zM428 -410h74v488h-64v1073h64v487h-74v-2048zM547 78v-488h71v488h-71zM547 1151h71v487h-71v-487zM664 78v-488h73v488h-73zM664 1151h73v487h-73v-487zM782 78v-488h72v488h-72z M782 1151h72v487h-72v-487zM899 78v-488h74v488h-74zM899 1151h74v487h-74v-487zM1018 78v-488h72v488h-72zM1018 1151h72v487h-72v-487zM1135 78v-488h73v488h-73zM1135 1151h73v487h-73v-487zM1253 78v-488h72v2048h-72v-487h64v-1073h-64zM1370 -410h74v2048h-74v-2048z M1489 -410h72v2048h-72v-2048zM1608 -410h67v2048h-67v-2048z" />
<glyph unicode="7" d="M80 -88q0 -51 14.5 -96t40.5 -84l12 -15v1794l-12 -14q-55 -82 -55 -180v-1405zM193 -332l30 -22l43 -25v1987l-43 -25l-30 -24v-1891zM311 -395l27 -8l45 -5v2044l-45 -4l-27 -8v-2019zM428 -410h74v488h-64v1073h64v487h-74v-2048zM547 78v-488h71v488h-71zM547 1151 h71v487h-71v-487zM664 78v-488h73v488h-73zM664 1151h73v487h-73v-487zM782 78v-488h72v488h-72zM782 1151h72v487h-72v-487zM899 78v-488h74v488h-74zM899 1151h74v487h-74v-487zM1018 78v-488h72v488h-72zM1018 1151h72v487h-72v-487zM1135 78v-488h73v488h-73zM1135 1151 h73v487h-73v-487zM1253 78v-488h72v2048h-72v-487h64v-1073h-64zM1370 -408l47 5l27 8v2019l-27 8l-47 4v-2044zM1489 -379l43 25l29 22v1891l-29 24l-43 25v-1987zM1606 -283l14 15q55 82 55 180v1405q0 51 -14 96t-41 84l-14 14v-1794z" />
<glyph unicode="8" d="M80 -410h67v2048h-67v-2048zM193 385v-795h73v783zM193 403l73 58v1177h-73v-1235zM311 365v-775h72v762zM311 496l72 57v395l-70 142l70 -25v573h-72v-1142zM428 344v-754h74v742zM428 590l74 57v66l-74 145v-268zM428 1049l74 -25v614h-74v-589zM547 324v-734h71v295 l-55 -59l31 489zM547 1008l71 -27v657h-71v-630zM664 -68v-342h73v420zM664 967l57 -21l16 47v645h-73v-671zM782 57v-467h72v545zM782 1124l72 211v303h-72v-514zM899 135v-545h74v467zM899 1335l74 -211v514h-74v-303zM1018 10v-420h72v342zM1018 993l16 -47l56 21v671 h-72v-645zM1135 -115v-295h73v734l-49 -9l31 -489zM1135 981l73 27v630h-73v-657zM1253 332v-742h72v754zM1253 647l72 -57v268l-72 -145v-66zM1253 1024l72 25v589h-72v-614zM1370 352v-762h74v775zM1370 553l74 -57v1142h-74v-573l72 25l-72 -142v-395zM1489 373v-783h72 v795zM1489 461l72 -58v1235h-72v-1177zM1608 -410h67v2048h-67v-2048z" />
<glyph unicode="9" d="M80 -88q0 -51 14.5 -96t40.5 -84l12 -15v1794l-12 -14q-55 -82 -55 -180v-1405zM193 -332l30 -22l43 -25v752l-73 12v-717zM193 403l73 58v1147l-43 -25l-30 -24v-1156zM311 365v-760l27 -8l45 -5v760zM311 496l72 57v395l-70 142l70 -25v571l-45 -4l-27 -8v-1128z M428 344v-754h74v740zM428 590l74 55v68l-74 145v-268zM428 1049l74 -25v614h-74v-589zM547 324v-734h71v295l-55 -59l31 489zM547 1008l71 -27v657h-71v-630zM664 -68v-342h73v420zM664 967l57 -21l16 47v645h-73v-671zM782 57v-467h72v545zM782 1124l72 211v303h-72v-514z M899 135v-545h74v467zM899 1335l74 -211v514h-74v-303zM1018 10v-420h72v342zM1018 993l16 -47l56 21v671h-72v-645zM1135 -115v-295h73v734l-49 -9l31 -489zM1135 981l73 27v630h-73v-657zM1253 330v-740h72v754zM1253 645l72 -55v268l-72 -145v-68zM1253 1024l72 25v589 h-72v-614zM1370 352v-760l47 5l27 8v760zM1370 553l74 -57v1128l-27 8l-47 4v-571l72 25l-72 -142v-395zM1489 373v-752l43 25l29 22v717zM1489 461l72 -58v1156l-29 24l-43 25v-1147zM1606 -283l14 15q55 82 55 180v1405q0 51 -14 96t-41 84l-14 14v-1794z" />
<glyph unicode="A" d="M80 -410h67v2048h-67v-2048zM193 -410h73v2048h-73v-2048zM311 -35l72 168v1505h-72v-1673zM311 -53v-357h72v357h-72zM428 -53v-357h74v357h-74zM428 238l74 168v1232h-74v-1400zM547 -53v-357h71v357h-71zM547 512l43 100l28 68v958h-71v-1126zM664 -53v-357h73v357 h-73zM664 784l73 168v686h-73v-854zM782 -53v-357h72v357h-72zM782 1057l72 168v413h-72v-581zM899 -53v-357h74v357h-74zM899 1225l74 -168v581h-74v-413zM1018 -53v-357h72v357h-72zM1018 952l72 -168v854h-72v-686zM1135 -53v-357h73v357h-73zM1135 680l73 -168v1126h-73 v-958zM1253 -53v-357h72v357h-72zM1253 406l72 -168v1400h-72v-1232zM1370 -53v-357h74v357h-74zM1370 133l74 -168v1673h-74v-1505zM1489 -410h72v2048h-72v-2048zM1608 -410h67v2048h-67v-2048z" />
<glyph unicode="B" d="M80 -410h67v2048h-67v-2048zM193 -410h73v1000l-53 28l53 29v991h-73v-2048zM311 -410h72v934l-72 39v-973zM311 672l72 39v927h-72v-966zM428 -410h74v869l-74 41v-910zM428 735l74 39v864h-74v-903zM547 -410h71v805l-71 39v-844zM547 799l71 41v798h-71v-839zM664 344 v-754h73v621zM664 895l73 133v610h-73v-743zM782 129v-539h72v408zM782 1112l72 133v393h-72v-526zM899 -16v-394h74v527zM899 1231l74 -131v538h-74v-407zM1018 201v-611h72v744zM1018 1018l72 -133v753h-72v-620zM1135 389v-799h73v838zM1135 834l73 -39v843h-73v-804z M1253 -410h72v904l-72 -39v-865zM1253 770l72 -41v909h-72v-868zM1370 -410h74v967l-74 -39v-928zM1370 705l74 -39v972h-74v-933zM1489 -410h72v2048h-72v-999l53 -29l-53 -28v-992zM1608 -410h67v2048h-67v-2048z" />
<glyph unicode="C" d="M80 -410h67v2048h-67v-2048zM193 -410h73v1084l-73 69v-1153zM193 774l73 10v854h-73v-864zM311 -410h72v973l-72 68v-1041zM311 791l72 10v837h-72v-847zM428 -410h74v398l-64 -33l64 360v136l-74 69v-930zM428 807l74 10v821h-74v-831zM547 10v-420h71v457zM547 823 l71 11v804h-71v-815zM664 70v-480h73v519zM664 852l73 143v643h-73v-786zM782 131v-541h72v578zM782 1085l72 144v409h-72v-553zM899 168v-578h74v541zM899 1229l74 -144v553h-74v-409zM1018 109v-519h72v480zM1018 995l72 -143v786h-72v-643zM1135 47v-457h73v420z M1135 834l73 -11v815h-73v-804zM1253 -12v-398h72v930l-72 -69v-136l64 -360zM1253 817l72 -10v831h-72v-821zM1370 -410h74v1041l-74 -68v-973zM1370 801l74 -10v847h-74v-837zM1489 -410h72v1153l-72 -69v-1084zM1489 784l72 -10v864h-72v-854zM1608 -410h67v2048h-67 v-2048z" />
<glyph unicode="D" d="M80 -410h67v2048h-67v-2048zM193 -410h73v639l-51 -6l51 72v639l-51 72l51 -7v639h-73v-2048zM311 233v-643h72v652zM311 358l72 101v311l-72 100v-512zM311 995l72 -8v651h-72v-643zM428 248v-658h74v666zM428 522l66 92l-66 93v-185zM428 981l74 -8v665h-74v-657z M547 260v-670h71v678zM547 969l71 -8v677h-71v-669zM664 272v-682h73v568l-51 118zM664 954l22 -2l51 119v567h-73v-684zM782 53v-463h72v295zM782 1176l72 167v295h-72v-462zM899 -115v-295h74v463zM899 1343l74 -167v462h-74v-295zM1018 158v-568h72v682l-21 4zM1018 1071 l51 -119l21 2v684h-72v-567zM1135 268v-678h73v670zM1135 961l73 8v669h-73v-677zM1253 256v-666h72v658zM1253 973l72 8v657h-72v-665zM1260 614l65 -92v185zM1370 242v-652h74v643zM1370 459l74 -101v512l-74 -100v-311zM1370 987l74 8v643h-74v-651zM1489 229v-639h72 v2048h-72v-639l51 7l-51 -72v-639l51 -72zM1608 -410h67v2048h-67v-2048z" />
<glyph unicode="E" d="M80 -410h67v2048h-67v-2048zM193 -410h73v703l-47 -2l47 49v549l-47 49l47 -2v702h-73v-2048zM311 295v-705h72v709zM311 389l72 78v295l-72 78v-451zM311 934l72 -6v710h-72v-704zM428 303v-713h74v717zM428 514l74 78v45l-74 78v-201zM428 926l74 -4v716h-74v-712z M547 309v-719h71v260l-14 -18l14 330v151zM547 920l71 -7v154l-14 330l14 -19v260h-71v-718zM664 -90v-320h73v416zM664 1319l73 -96v415h-73v-319zM782 66v-476h72v570zM782 1163l72 -96v571h-72v-475zM899 160v-570h74v476zM899 1067l74 96v475h-74v-571zM1018 6v-416h72 v320zM1018 1223l72 96v319h-72v-415zM1135 -150v-260h73v719l-73 4v-151l14 -330zM1135 913l73 7v718h-73v-260l14 19l-14 -330v-154zM1253 307v-717h72v713zM1253 592l72 -78v201l-72 -78v-45zM1253 922l72 4v712h-72v-716zM1370 299v-709h74v705zM1370 467l74 -78v451 l-74 -78v-295zM1370 928l74 6v704h-74v-710zM1489 293v-703h72v2048h-72v-702l45 2l-45 -49v-549l45 -49zM1608 -410h67v2048h-67v-2048z" />
<glyph unicode="F" d="M80 -410h67v2048h-67v-2048zM193 -410h73v2048h-73v-2048zM311 -410h72v988l-72 92v-1080zM311 844l21 10l35 10l16 4v770h-72v-794zM428 -410h74v267l-15 12q-14 16 -14 57q0 20 2 31l27 203v157l-13 60q-10 41 -13 49t-17 39l-31 51v-926zM428 877l55 10l19 6v745h-74 v-761zM547 -154v-256h71v293l-16 -10l-29 -18zM547 909l12 4l59 41v684h-71v-729zM664 -84v-326h73v371l-12 -4zM664 999l26 27q27 35 41 72l6 16v524h-73v-639zM782 -16v-394h72v406l-57 -6zM782 1235l29 76q12 35 31 53l12 10v264h-72v-403zM899 -4v-406h74v394l-15 6z M899 1374l14 -10q20 -25 31 -53l29 -76v403h-74v-264zM1018 -39v-371h72v326l-60 41zM1018 1114l6 -16q12 -27 17.5 -39t23.5 -33l25 -27v639h-72v-524zM1135 -117v-293h73v256l-26 9l-31 18zM1135 954l61 -41l12 -4v729h-73v-684zM1253 -145v-265h72v926l-29 -51 q-23 -47 -32 -88l-11 -60v-157l27 -203q2 -10 2 -31q0 -35 -14 -57zM1253 893l19 -6l53 -10v761h-72v-745zM1370 -410h74v1080l-74 -92v-988zM1370 868l19 -4l34 -10l21 -10v794h-74v-770zM1489 -410h72v2048h-72v-2048zM1608 -410h67v2048h-67v-2048z" />
<glyph unicode="G" d="M80 -410h67v2048h-67v-2048zM193 -410h73v942l-30 9l-27 16l-16 12v-979zM193 659l16 13l27 16l30 8v942h-73v-979zM311 -410h72v521l-6 4q-16 16 -17 45q0 18 11 53l12 23v276l-72 6v-928zM311 711l72 6v276l-10 23q-12 31 -13 55q0 27 17 43l6 4v520h-72v-927zM428 100 v-510h74v531l-41 -17zM428 305l35 43l39 33v143l-39 -10l-35 -2v-207zM428 717l35 -2l39 -10v143l-39 33l-35 43v-207zM428 1130l18 -2l29 -8l27 -14v532h-74v-508zM547 147v-557h71v621l-8 -10l-51 -45zM547 412l18 12l13 6l40 25v98l-71 -16v-125zM547 692l71 -16v98 l-40 25l-13 6l-18 12v-125zM547 1081l63 -53l8 -10v620h-71v-557zM664 266v-676h73v797l-45 -72l-6 -14zM664 483l32 21l41 24v54l-73 -19v-80zM664 666l8 -2l65 -17v53l-73 45v-79zM664 963l22 -35l8 -15l43 -69v794h-73v-675zM782 41v-451h72v322l-18 12q-16 16 -33 49z M782 219l9 39l6 14l53 226l-21 4l-14 10l-33 -51v-242zM782 770l33 -53l14 10l21 4l-53 225l-6 15l-9 39v-240zM782 1186l21 69q16 35 35 50l16 12v321h-72v-452zM899 -88v-322h74v453l-23 -70q-10 -27 -32 -49zM899 1317l19 -12q23 -23 32 -50l23 -67v450h-74v-321z M905 498l21 -90l32 -136l5 -14l10 -39v240l-33 53l-16 -10zM905 731l19 -4l16 -10l33 51v242l-8 -39l-7 -15l-32 -135zM1018 385v-795h72v676l-23 35l-6 14zM1018 528l41 -24l31 -21v80l-72 19v-54zM1018 647l65 17l7 2v79l-72 -45v-53zM1018 842l43 71l6 15l23 35v675h-72 v-796zM1135 209v-619h73v557l-14 9q-27 20 -49 45zM1135 455l41 -25l14 -6l18 -12v123l-73 18v-98zM1135 676l73 16v125l-18 -12l-14 -6l-41 -25v-98zM1135 1018l10 10l63 53v557h-73v-620zM1253 121v-531h72v510l-31 4zM1253 381l39 -35l33 -41v207l-33 2l-39 10v-143z M1253 705l39 8l33 4v205l-33 -41l-39 -33v-143zM1253 1106l25 14l31 8l16 2v508h-72v-532zM1370 111v-521h74v928l-74 -6v-276l12 -23q6 -14 7.5 -28.5t3.5 -22.5q0 -31 -17 -47zM1370 717l74 -6v927h-74v-520l8 -4q14 -16 15 -47q0 -29 -11 -51l-12 -23v-276zM1489 -410h72 v979l-15 -12l-28 -16l-29 -11v-940zM1489 696l29 -8l28 -16l15 -13v979h-72v-942zM1608 -410h67v2048h-67v-2048z" />
<glyph unicode="H" d="M80 -410h67v2048h-67v-2048zM193 -410h73v1008l-73 23v-1031zM193 625l73 24v989h-73v-1013zM311 -410h72v969l-72 25v-994zM311 664l72 22v952h-72v-974zM428 152v-562h74v598zM428 213l74 143v78l-33 96l-41 15v-332zM428 700l27 9l18 8l21 59l8 17v98l-74 141v-332z M428 1083l74 -36v591h-74v-555zM547 211v-621h71v658zM547 1022l71 -37v653h-71v-616zM664 256v-666h73v633l-22 6l-45 23zM664 971l51 28l22 7v632h-73v-667zM782 209v-619h72v416l-66 201zM782 1020l6 2l66 201v415h-72v-618zM899 -16v-394h74v617l-6 -17zM899 1245 l68 -207l6 -16v616h-74v-393zM1018 223v-633h72v666l-5 -4l-45 -23zM1018 1006l22 -7l50 -28v667h-72v-632zM1135 244v-654h73v617zM1135 989l73 37v612h-73v-649zM1253 184v-594h72v557zM1253 352l72 -141v334l-39 -13l-33 -98v-82zM1253 793l9 -17l18 -59l20 -8l25 -9v336 l-72 -143v-100zM1253 1049l72 36v553h-72v-589zM1370 -410h74v994l-74 -25v-969zM1370 686l74 -22v974h-74v-952zM1489 -410h72v1031l-72 -23v-1008zM1489 649l72 -24v1013h-72v-989zM1608 -410h67v2048h-67v-2048z" />
<glyph unicode="I" d="M80 -410h67v2048h-67v-2048zM193 -410h73v834l-6 381l6 833h-73v-2048zM311 -410h72v834h-72v-834zM311 805h72v833h-72v-833zM428 -410h74v834h-74v-834zM428 805h74v833h-74v-833zM547 -410h71v834h-71v-834zM547 805h71v833h-71v-833zM664 -410h73v834h-73v-834z M664 805h73v833h-73v-833zM782 -410h72v834h-72v-834zM782 805h72v833h-72v-833zM899 -410h74v570l-53 -47v311h-21v-834zM899 805h21v311l53 -47v569h-74v-833zM1018 199v-609h72v672zM1018 1030l72 -63v671h-72v-608zM1135 301v-711h73v775zM1135 928l71 -62l2 772h-73 v-710zM1253 406v-816h72v879zM1253 823l72 -63v878h-72v-815zM1370 -410h74v981l-74 -63v-918zM1370 721l74 -64v981h-74v-917zM1489 -410h72v2048h-72v-1022v-4v-1022zM1608 -410h67v2048h-67v-2048z" />
<glyph unicode="J" d="M80 -410h67v2048h-67v-2048zM193 -410h73v2048h-73v-2048zM311 -410h72v2048h-72v-2048zM428 -410h74v287l-62 -53v328l62 55v815l-62 55v328l62 -55v288h-74v-2048zM547 -80v-330h71v396zM547 248l71 65v602l-71 66v-733zM547 1309l71 -66v395h-71v-329zM664 27v-437h73 v502zM664 354l73 66v389l-73 65v-520zM664 1202l73 -65v501h-73v-436zM782 133v-543h72v609zM782 461l72 65v176l-72 66v-307zM782 1096l72 -66v608h-72v-542zM899 240v-650h74v715zM899 567l51 47l-51 48v-95zM899 989l74 -65v714h-74v-649zM1018 346v-756h72v822z M1018 883l72 -66v821h-72v-755zM1135 -410h73v930l-73 -65v-865zM1135 774l73 -65v929h-73v-864zM1253 -410h72v2048h-72v-970l60 -54l-60 -53v-971zM1370 -410h74v2048h-74v-2048zM1489 -410h72v2048h-72v-2048zM1608 -410h67v2048h-67v-2048z" />
<glyph unicode="K" d="M80 -410h67v2048h-67v-2048zM193 -410h73v983l-43 41l43 41v983h-73v-2048zM311 -410h72v865l-72 71v-936zM311 702l72 72v864h-72v-936zM428 410v-820h74v746zM428 819l74 72v747h-74v-819zM547 291v-701h71v629zM547 938l71 72v628h-71v-700zM664 174v-584h73v510z M664 1055l73 73v510h-73v-583zM782 55v-465h72v394zM782 1174l72 71v393h-72v-464zM899 -16v-394h74v465zM899 1245l74 -71v464h-74v-393zM1018 100v-510h72v584zM1018 1128l72 -73v583h-72v-510zM1135 219v-629h73v701zM1135 1010l73 -72v700h-73v-628zM1253 336v-746h72 v820zM1253 891l72 -72v819h-72v-747zM1370 -410h74v936l-74 -71v-865zM1370 774l74 -72v936h-74v-864zM1489 -410h72v2048h-72v-983l41 -41l-41 -41v-983zM1608 -410h67v2048h-67v-2048z" />
<glyph unicode="L" d="M80 -410h67v2048h-67v-2048zM193 -410h73v768l-33 48l33 161v1071h-73v-2048zM311 293v-703h72v596zM311 799l49 256l23 12v571h-72v-839zM428 121v-531h74v424zM428 1094l74 41v503h-74v-544zM547 -51v-359h71v293h-28zM547 1159l71 41v438h-71v-479zM664 -117v-293h73 v293h-73zM664 1225l73 41v372h-73v-413zM782 -117v-293h72v293h-72zM782 1292l72 39v307h-72v-346zM899 -117v-293h74v293h-74zM899 1331l74 -39v346h-74v-307zM1018 -117v-293h72v293h-72zM1018 1266l72 -41v413h-72v-372zM1135 -117v-293h73v359l-45 -66h-28zM1135 1200 l73 -41v479h-73v-438zM1253 14v-424h72v531zM1253 1135l72 -41v544h-72v-503zM1370 186v-596h74v703zM1370 1067l23 -12l51 -256v839h-74v-571zM1489 358v-768h72v2048h-72v-1071l33 -161zM1608 -410h67v2048h-67v-2048z" />
<glyph unicode="M" d="M80 -410h67v2048h-67v-2048zM193 -410h73v1082l-33 125l33 28v813h-73v-2048zM311 -410h72v623l-72 283v-906zM311 868l72 66v704h-72v-770zM428 37v-447h74v248h-23zM428 977l74 65v596h-74v-661zM547 -162v-248h71v248h-71zM547 1085l71 66v487h-71v-553zM664 -162 v-248h73v248h-73zM664 1192l73 68v378h-73v-446zM782 -162v-248h72v248h-72zM782 1300l72 68v270h-72v-338zM899 -162v-248h74v248h-74zM899 1368l74 -68v338h-74v-270zM1018 -162v-248h72v248h-72zM1018 1260l72 -68v446h-72v-378zM1135 -162v-248h73v248h-73zM1135 1151 l73 -66v553h-73v-487zM1253 -162v-248h72v447l-49 -199h-23zM1253 1042l72 -65v661h-72v-596zM1370 213v-623h74v906zM1370 934l74 -66v770h-74v-704zM1489 -410h72v2048h-72v-813l33 -28l-33 -125v-1082zM1608 -410h67v2048h-67v-2048z" />
<glyph unicode="N" d="M80 -410h67v2048h-67v-2048zM193 -410h73v2048h-73v-2048zM311 -410h72v881l-59 143l59 144v880h-72v-2048zM428 365v-775h74v603zM428 864l74 172v602h-74v-774zM547 84v-494h71v365h-18zM547 1145l53 129h18v364h-71v-493zM664 -45v-365h73v365h-73zM664 1274h73v364 h-73v-364zM782 -45v-365h72v365h-72zM782 1274h72v364h-72v-364zM899 -45v-365h74v365h-74zM899 1274h74v364h-74v-364zM1018 -45v-365h72v365h-72zM1018 1274h72v364h-72v-364zM1135 -45v-365h73v494l-53 -129h-20zM1135 1274h20l53 -129v493h-73v-364zM1253 193v-603h72 v775zM1253 1036l72 -172v774h-72v-602zM1370 -410h74v2048h-74v-880l62 -144l-62 -143v-881zM1489 -410h72v2048h-72v-2048zM1608 -410h67v2048h-67v-2048z" />
<glyph unicode="O" d="M80 -410h67v2048h-67v-2048zM193 -410h73v959h-41v131h41v958h-73v-2048zM311 -410h72v596l-12 13l12 14v336h-72v-959zM311 680h72v336l-12 14l12 12v596h-72v-958zM428 139v-549h74v555l-41 -39zM428 258l74 72v219h-74v-291zM428 680h74v219l-74 72v-291zM428 1090 l33 32l41 -41v557h-74v-548zM547 193v-603h71v674zM547 375l71 74v100h-71v-174zM547 680h71v100l-71 74v-174zM547 1036l71 -71v673h-71v-602zM664 309v-719h73v791zM664 494l57 55h-57v-55zM664 680h57l-57 55v-55zM664 920l73 -74v792h-73v-718zM782 -410h72v371h-41v496 l-31 -29v-838zM782 801l31 -29v496h41v370h-72v-837zM899 -39v-371h74v838l-31 29v-496h-43zM899 1268h43v-496l31 29v837h-74v-370zM1018 381v-791h72v719zM1018 846l72 74v718h-72v-792zM1034 549l56 -55v55h-56zM1034 680h56v55zM1135 264v-674h73v603zM1135 449l73 -74 v174h-73v-100zM1135 680h73v174l-73 -74v-100zM1135 965l73 71v602h-73v-673zM1253 145v-555h72v549l-33 -33zM1253 330l72 -72v291h-72v-219zM1253 680h72v291l-72 -72v-219zM1253 1081l39 41l33 -32v548h-72v-557zM1370 186v-596h74v959h-74v-336l14 -14zM1370 680h74v958 h-74v-596l14 -12l-14 -14v-336zM1489 -410h72v2048h-72v-958h41v-131h-41v-959zM1608 -410h67v2048h-67v-2048z" />
<glyph unicode="P" d="M80 -410h67v2048h-67v-2048zM193 -410h73v2048h-73v-2048zM311 -410h72v1104l-18 31l-25 47l-29 82v-1264zM311 1067l6 25q23 53 66 96v450h-72v-571zM428 -410h74v940l-21 25l-45 61l-8 9v-1035zM428 1227q12 8 24.5 15t26.5 11l23 7v378h-74v-411zM547 -410h71v787 l-24 33l-47 61v-881zM547 1270l47 6l24 -4v366h-71v-368zM664 313v-723h73v603l-32 57zM664 1266q37 -8 65 -29l8 -6v407h-73v-372zM782 106v-516h72v373q-10 8 -29 51l-24 56zM782 1192l37 -51q6 -8 14.5 -25.5t14.5 -38.5l6 -16v577h-72v-446zM899 -410h74v519l-19 -37 l-26 -62q-14 -41 -25 -49zM899 1063l4 10l31 68l39 51v446h-74v-575zM1018 195v-605h72v725l-15 -24l-24 -41l-29 -49zM1018 1231l8 6q31 20 61 29l3 372h-72v-407zM1135 379v-789h73v883l-41 -53zM1135 1272l24 4l49 -6v368h-73v-366zM1253 -410h72v1035l-6 -11l-45 -59 l-21 -25v-940zM1253 1260l23 -7l49 -26v411h-72v-378zM1370 -410h74v1268l-29 -84l-24 -49l-21 -33v-1102zM1370 1190q47 -45 68 -98l6 -21v567h-74v-448zM1489 -410h72v2048h-72v-2048zM1608 -410h67v2048h-67v-2048z" />
<glyph unicode="Q" d="M80 -410h67v2048h-67v-2048zM193 -410h73v2048h-73v-2048zM311 -410h72v271l-43 10l10 4l33 12v1454l-33 13l-10 4l43 10v270h-72v-2048zM428 -96l47 16l27 14v1360l-27 15l-47 16v-1421zM428 -147v-263h74v252l-8 2zM428 1376l66 8l8 2v252h-74v-262zM547 -41l41 23 l30 24v1217l-30 22l-41 25v-1311zM547 -160v-250h71v252l-38 -2h-33zM547 1389h33l38 -3v252h-71v-249zM664 41l26 18l47 50v1009l-47 51l-26 19v-1147zM664 -410h73v263l-71 -9zM664 1384l73 -8v262h-73v-254zM782 -137v-273h72v291l-23 -6zM782 160l66 94l6 16v688l-6 17 l-66 94v-909zM782 1366l49 -12l23 -8v292h-72v-272zM899 -102v-308h74v338l-64 -28zM899 367q45 122 45 247t-45 248v-495zM899 1331l10 -2l64 -29v338h-74v-307zM1018 -47v-363h72v410l-37 -29zM1018 1276l35 -19l37 -28v409h-72v-362zM1135 35v-445h73v506l-30 -28z M1135 1194l43 -33l30 -31v508h-73v-444zM1253 147v-557h72v660l-45 -70zM1253 1081l27 -34l43 -64l2 655h-72v-557zM1370 344v-754h74v2048h-74v-753l16 -41q39 -113 39 -230q0 -115 -39 -231zM1489 -410h72v2048h-72v-2048zM1606 -410h69v2048h-69v-2048z" />
<glyph unicode="R" d="M80 -410h67v2048h-67v-2048zM193 -410h73v705h-33v639h33v704h-73v-2048zM311 295v-705h72v705h-72zM311 934h72v704h-72v-704zM428 295v-705h74v705h-74zM428 934h74v704h-74v-704zM547 295v-705h71v381h-61v324h-10zM547 934h10v323h61v381h-71v-704zM664 -29v-381h73 v381h-73zM664 1257h73v381h-73v-381zM782 -29v-381h72v381h-72zM782 1257h72v381h-72v-381zM899 -29v-381h74v381h-74zM899 1257h74v381h-74v-381zM1018 -29v-381h72v381h-72zM1018 1257h72v381h-72v-381zM1135 -29v-381h73v705h-12v-324h-61zM1135 1257h61v-323h12v704h-73 v-381zM1253 295v-705h72v705h-72zM1253 934h72v704h-72v-704zM1370 295v-705h74v705h-74zM1370 934h74v704h-74v-704zM1489 295v-705h72v2048h-72v-704h33v-639h-33zM1608 -410h67v2048h-67v-2048z" />
<glyph unicode="S" d="M80 -410h67v2048h-67v-2048zM193 -410h73v2048h-73v-2048zM311 -410h72v357l-33 -13l33 148v1065l-33 147l33 -12v356h-72v-2048zM428 -37v-373h74v402zM428 281l74 319v29l-74 319v-667zM428 1266l74 -29v401h-74v-372zM547 8v-418h71v447zM547 1221l71 -29v446h-71 v-417zM664 53v-463h73v490zM664 1176l73 -27v489h-73v-462zM782 98v-508h72v535zM782 1130l72 -26v534h-72v-508zM899 125v-535h74v508zM899 1104l74 26v508h-74v-534zM1018 80v-490h72v463zM1018 1149l72 27v462h-72v-489zM1135 37v-447h73v418zM1135 1192l73 29v417h-73 v-446zM1253 -8v-402h72v373zM1253 600l72 -319v667l-72 -319v-29zM1253 1237l72 29v372h-72v-401zM1370 -53v-357h74v2048h-74v-356l35 12l-35 -147v-1065l35 -148zM1489 -410h72v2048h-72v-2048zM1608 -410h67v2048h-67v-2048z" />
<glyph unicode="T" d="M80 -410h67v2048h-67v-2048zM193 -410h73v2048h-73v-2048zM311 -410h72v947l-45 65l45 70v966h-72v-2048zM428 -410h74v781l-74 102v-883zM428 739l74 109v790h-74v-899zM547 307v-717h71v615zM547 915l71 111v612h-71v-723zM664 141v-551h73v449zM664 1094l73 108v436 h-73v-544zM782 -27v-383h72v281zM782 1270l72 108v260h-72v-368zM899 -150v-260h74v369zM899 1358l74 -103v383h-74v-280zM1018 27v-437h72v545zM1018 1190l72 -103v551h-72v-448zM1135 203v-613h73v721zM1135 1024l73 -102v716h-73v-614zM1253 381v-791h72v899zM1253 858 l72 -102v882h-72v-780zM1370 -410h74v2048h-74v-946l47 -65l-47 -70v-967zM1489 -410h72v2048h-72v-2048zM1608 -410h67v2048h-67v-2048z" />
<glyph unicode="U" d="M80 -410h67v2048h-67v-2048zM193 -410h73v2048h-73v-2048zM311 -410h72v932l-45 94l-27 54v-1080zM311 680h72v958h-72v-958zM428 -410h74v693l-74 147v-840zM428 680h74v958h-74v-958zM547 190v-600h71v455zM547 680h10l61 -123v1081h-71v-958zM664 -47v-363h73v332 l-28 -57zM664 465l49 -96l24 49v1220h-73v-1173zM782 14v-424h72v572zM782 510l72 147v981h-72v-1128zM899 254v-664h74v811zM899 750l74 147v741h-74v-888zM1018 -410h72v1051l-11 -25l-61 -122v-904zM1018 989l65 131l7 17v501h-72v-649zM1135 -410h73v1289l-73 -148 v-1141zM1135 1227l69 141l4 270h-73v-411zM1253 -410h72v1528l-72 -147v-1381zM1253 1368h72v270h-72v-270zM1370 -410h74v1768l-74 -148v-1620zM1370 1368h74v270h-74v-270zM1489 -410h72v2048h-72v-2048zM1608 -410h67v2048h-67v-2048z" />
<glyph unicode="V" d="M80 -410h67v2048h-67v-2048zM193 -410h73v2048h-73v-2048zM311 -410h72v2048h-72v-2048zM428 -410h74v473l-27 48q-33 78 -33 172q0 113 52 211l8 10v1134h-74v-2048zM547 -2v-408h71v338l-49 41zM547 608l71 170v860h-71v-1030zM664 -100v-310h73v277l-28 8zM664 883 l16 35l57 135v585h-73v-755zM782 -147v-263h72v252l-66 8zM782 1157l72 168v313h-72v-481zM899 -158v-252h74v263l-8 -3zM899 1335l74 -168v471h-74v-303zM1018 -133v-277h72v310l-43 -25zM1018 1061l61 -143l11 -25v745h-72v-577zM1135 -72v-338h73v408l-22 -29zM1135 786 l73 -168v1020h-73v-852zM1253 63v-473h72v2048h-72v-1124l23 -55q37 -86 37 -176t-35 -172zM1370 -410h74v2048h-74v-2048zM1489 -410h72v2048h-72v-2048zM1608 -410h67v2048h-67v-2048z" />
<glyph unicode="W" d="M80 -410h67v2048h-67v-2048zM193 -410h73v2048h-73v-2048zM311 -410h72v1303l-4 178l4 567h-72v-2048zM428 -410h74v1303h-74v-1303zM428 1071h74v567h-74v-567zM547 -410h71v1303h-71v-1303zM547 1071h71v567h-71v-567zM664 -410h73v1303h-73v-1303zM664 1071h73v567 h-73v-567zM782 -156v-254h72v254h-72zM782 1384h72v254h-72v-254zM899 -156v-254h74v254h-74zM899 1384h74v254h-74v-254zM1018 -410h72v1303h-72v-1303zM1018 1071h72v567h-72v-567zM1135 -410h73v1303h-73v-1303zM1135 1071h73v567h-73v-567zM1253 -410h72v1303h-72v-1303 zM1253 1071h72v567h-72v-567zM1370 -410h74v2048h-74v-567l6 -178zM1489 -410h72v2048h-72v-2048zM1608 -410h67v2048h-67v-2048z" />
<glyph unicode="X" d="M80 -410h67v2048h-67v-2048zM193 -410h73v2048h-73v-2048zM311 -410h72v2048h-72v-2048zM428 -410h74v252h-41l41 142v956l-6 51l6 66v581h-74v-2048zM547 139l71 250v316l-24 22l-47 70v-658zM547 -158v-252h71v252h-71zM547 1186l14 26q6 10 21 29q6 8 24 29l12 10v358 h-71v-452zM664 -158v-252h73v252h-73zM664 547l6 16l22 82l-28 19v-117zM664 1319l65 35l8 4v280h-73v-319zM782 -158v-252h72v252h-72zM782 1372l19 6l53 4v256h-72v-266zM899 -158v-252h74v252h-74zM899 1382l55 -4l19 -6v266h-74v-256zM1018 -158v-252h72v252h-72z M1018 1358l8 -4l64 -35v319h-72v-280zM1061 645l29 -98v117zM1135 -158v-252h73v252h-73zM1135 389l73 -250v658l-47 -70l-26 -22v-316zM1135 1280l12 -10q12 -12 24 -27q6 -6 23 -31l14 -26v452h-73v-358zM1253 -16l41 -142h-41v-252h72v2048h-72v-581l7 -66l-7 -51v-956z M1370 -410h74v2048h-74v-2048zM1489 -410h72v2048h-72v-2048zM1608 -410h67v2048h-67v-2048z" />
<glyph unicode="Y" d="M80 -410h67v2048h-67v-2048zM193 -410h73v2048h-73v-2048zM311 184v-594h72v523zM311 258l72 72v569l-72 72v-713zM311 1042l72 74v522h-72v-596zM428 68v-478h74v439l-17 -17zM428 375l74 74v331l-74 72v-477zM428 1161l57 56l17 -17v438h-74v-477zM547 74v-484h71v555z M547 494l71 71v99l-71 71v-241zM547 1155l71 -72v555h-71v-483zM664 190v-600h73v674zM664 1036l73 -71v673h-73v-602zM782 309v-719h72v791zM782 920l72 -72v790h-72v-718zM899 381v-791h74v719zM899 848l74 72v718h-74v-790zM1018 264v-674h72v600zM1018 965l72 71v602 h-72v-673zM1135 145v-555h73v484zM1135 565l73 -71v241l-73 -71v-99zM1135 1083l73 72v483h-73v-555zM1253 29v-439h72v478l-55 -56zM1253 449l72 -74v477l-72 -72v-331zM1253 1200l17 17l55 -56v477h-72v-438zM1370 113v-523h74v594zM1370 330l74 -72v713l-74 -72v-569z M1370 1116l74 -74v596h-74v-522zM1489 -410h72v2048h-72v-2048zM1608 -410h67v2048h-67v-2048z" />
<glyph unicode="Z" d="M80 -410h67v2048h-67v-2048zM193 -410h73v908l-73 73v-981zM193 657l73 74v907h-73v-981zM311 -410h72v510h-21v301l-51 52v-863zM311 776l51 51v301h21v510h-72v-862zM428 100v-510h74v510h-74zM428 1128h74v510h-74v-510zM547 100v-510h71v510h-71zM547 1128h71v510 h-71v-510zM664 100v-510h73v437zM664 1128l73 74v436h-73v-510zM782 -18v-392h72v320zM782 1247l72 72v319h-72v-391zM899 -90v-320h74v392zM899 1319l74 -72v391h-74v-319zM1018 27v-437h72v510zM1018 1202l72 -74v510h-72v-436zM1135 100v-510h73v510h-73zM1135 1128h73 v510h-73v-510zM1253 100v-510h72v510h-72zM1253 1128h72v510h-72v-510zM1370 100v-510h74v863l-51 -52v-301h-23zM1370 1128h23v-301l51 -51v862h-74v-510zM1489 -410h72v981l-72 -73v-908zM1489 731l72 -74v981h-72v-907zM1608 -410h67v2048h-67v-2048z" />
<glyph unicode="a" d="M80 -88q0 -51 14.5 -96t40.5 -84l12 -15v1794l-12 -14q-55 -82 -55 -180v-1405zM193 -330l30 -24l43 -25v1987l-43 -25l-30 -24v-1889zM311 -35l72 168v1503l-45 -4l-27 -8v-1659zM311 -53v-342l27 -8l45 -5v355h-72zM428 -53v-357h74v357h-74zM428 238l74 168v1232h-74 v-1400zM547 -53v-357h71v357h-71zM547 512l43 100l28 68v958h-71v-1126zM664 -53v-357h73v357h-73zM664 784l73 168v686h-73v-854zM782 -53v-357h72v357h-72zM782 1057l72 168v413h-72v-581zM899 -53v-357h74v357h-74zM899 1225l74 -168v581h-74v-413zM1018 -53v-357h72v357 h-72zM1018 952l72 -168v854h-72v-686zM1135 -53v-357h73v357h-73zM1135 680l73 -168v1126h-73v-958zM1253 -53v-357h72v357h-72zM1253 406l72 -168v1400h-72v-1232zM1370 -53v-355l47 5l27 8v342h-74zM1370 133l74 -168v1659l-27 8l-47 4v-1503zM1489 -379l43 25l29 24v1889 l-29 24l-43 25v-1987zM1606 -283l14 15q55 82 55 180v1405q0 51 -14 96t-41 84l-14 14v-1794z" />
<glyph unicode="b" d="M80 -88q0 -51 14.5 -96t40.5 -84l12 -15v1794l-12 -14q-55 -82 -55 -180v-1405zM193 -332l30 -22l43 -25v969l-53 28l53 29v961l-43 -25l-30 -24v-1891zM311 -395l27 -8l45 -5v932l-72 39v-958zM311 672l72 39v925l-45 -4l-27 -8v-952zM428 -410h74v869l-74 41v-910z M428 735l74 39v864h-74v-903zM547 -410h71v805l-71 39v-844zM547 799l71 41v798h-71v-839zM664 344v-754h73v621zM664 895l73 133v610h-73v-743zM782 129v-539h72v408zM782 1112l72 133v393h-72v-526zM899 -16v-394h74v527zM899 1231l74 -131v538h-74v-407zM1018 201v-611 h72v744zM1018 1018l72 -133v753h-72v-620zM1135 389v-799h73v838zM1135 834l73 -39v843h-73v-804zM1253 -410h72v904l-72 -39v-865zM1253 770l72 -41v909h-72v-868zM1370 -408l47 5l27 8v952l-74 -39v-926zM1370 705l74 -39v958l-27 8l-47 4v-931zM1489 -379l43 25l29 22 v1891l-29 24l-43 25v-969l53 -29l-53 -28v-961zM1606 -283l14 15q55 82 55 180v1405q0 51 -14 96t-41 84l-14 14v-1794z" />
<glyph unicode="c" d="M80 -88q0 -51 14.5 -96t40.5 -84l12 -15v1794l-12 -14q-55 -82 -55 -180v-1405zM193 -332l30 -22l43 -25v1053l-73 69v-1075zM193 774l73 10v824l-43 -25l-30 -24v-785zM311 -395l27 -8l45 -5v971l-72 68v-1026zM311 791l72 10v835l-45 -4l-27 -8v-833zM428 -410h74v398 l-64 -33l64 360v136l-74 69v-930zM428 807l74 10v821h-74v-831zM547 10v-420h71v457zM547 823l71 11v804h-71v-815zM664 70v-480h73v519zM664 852l73 143v643h-73v-786zM782 131v-541h72v578zM782 1085l72 144v409h-72v-553zM899 168v-578h74v541zM899 1229l74 -144v553h-74 v-409zM1018 109v-519h72v480zM1018 995l72 -143v786h-72v-643zM1135 47v-457h73v420zM1135 834l73 -11v815h-73v-804zM1253 -12v-398h72v930l-72 -69v-136l64 -360zM1253 817l72 -10v831h-72v-821zM1370 -408l47 5l27 8v1026l-74 -68v-971zM1370 801l74 -10v833l-27 8l-47 4 v-835zM1489 -379l43 25l29 22v1075l-72 -69v-1053zM1489 784l72 -10v785l-29 24l-43 25v-824zM1606 -283l14 15q55 82 55 180v1405q0 51 -14 96t-41 84l-14 14v-1794z" />
<glyph unicode="d" d="M80 -88q0 -51 14.5 -96t40.5 -84l12 -15v1794l-12 -14q-55 -82 -55 -180v-1405zM193 -332l30 -22l43 -25v608l-51 -6l51 72v639l-51 72l51 -7v609l-43 -25l-30 -24v-1891zM311 233v-628l27 -8l45 -5v650zM311 358l72 101v311l-72 100v-512zM311 995l72 -8v649l-45 -4 l-27 -8v-629zM428 248v-658h74v666zM428 522l66 92l-66 93v-185zM428 981l74 -8v665h-74v-657zM547 260v-670h71v678zM547 969l71 -8v677h-71v-669zM664 272v-682h73v568l-51 118zM664 954l22 -2l51 119v567h-73v-684zM782 53v-463h72v295zM782 1176l72 167v295h-72v-462z M899 -115v-295h74v463zM899 1343l74 -167v462h-74v-295zM1018 158v-568h72v682l-21 4zM1018 1071l51 -119l21 2v684h-72v-567zM1135 268v-678h73v670zM1135 961l73 8v669h-73v-677zM1253 256v-666h72v658zM1253 973l72 8v657h-72v-665zM1260 614l65 -92v185zM1370 242v-650 l47 5l27 8v628zM1370 459l74 -101v512l-74 -100v-311zM1370 987l74 8v629l-27 8l-47 4v-649zM1489 229v-608l43 25l29 22v1891l-29 24l-43 25v-609l51 7l-51 -72v-639l51 -72zM1606 -283l14 15q55 82 55 180v1405q0 51 -14 96t-41 84l-14 14v-1794z" />
<glyph unicode="e" d="M80 -88q0 -51 14.5 -96t40.5 -84l12 -15v1794l-12 -14q-55 -82 -55 -180v-1405zM193 -332l30 -22l43 -25v672l-47 -2l47 49v549l-47 49l47 -2v672l-43 -25l-30 -24v-1891zM311 295v-690l27 -8l45 -5v707zM311 389l72 78v295l-72 78v-451zM311 934l72 -6v708l-45 -4 l-27 -8v-690zM428 303v-713h74v717zM428 514l74 78v45l-74 78v-201zM428 926l74 -4v716h-74v-712zM547 309v-719h71v260l-14 -18l14 330v151zM547 920l71 -7v154l-14 330l14 -19v260h-71v-718zM664 -90v-320h73v416zM664 1319l73 -96v415h-73v-319zM782 66v-476h72v570z M782 1163l72 -96v571h-72v-475zM899 160v-570h74v476zM899 1067l74 96v475h-74v-571zM1018 6v-416h72v320zM1018 1223l72 96v319h-72v-415zM1135 -150v-260h73v719l-73 4v-151l14 -330zM1135 913l73 7v718h-73v-260l14 19l-14 -330v-154zM1253 307v-717h72v713zM1253 592 l72 -78v201l-72 -78v-45zM1253 922l72 4v712h-72v-716zM1370 299v-707l47 5l27 8v690zM1370 467l74 -78v451l-74 -78v-295zM1370 928l74 6v690l-27 8l-47 4v-708zM1489 293v-672l43 25l29 22v1891l-29 24l-43 25v-672l45 2l-45 -49v-549l45 -49zM1606 -283l14 15 q55 82 55 180v1405q0 51 -14 96t-41 84l-14 14v-1794z" />
<glyph unicode="f" d="M80 -88q0 -51 14.5 -96t40.5 -84l12 -15v1794l-12 -14q-55 -82 -55 -180v-1405zM193 -332l30 -22l43 -25v1987l-43 -25l-30 -24v-1891zM311 -395l27 -8l45 -5v986l-72 92v-1065zM311 844l21 10l35 10l16 4v768l-45 -4l-27 -8v-780zM428 -410h74v267l-15 12q-14 16 -14 57 q0 20 2 31l27 203v157l-13 60q-10 41 -13 49t-17 39l-31 51v-926zM428 877l55 10l19 6v745h-74v-761zM547 -154v-256h71v293l-16 -10l-31 -18zM547 909l10 4l61 41v684h-71v-729zM664 -84v-326h73v371l-12 -4zM664 999l26 27q27 35 41 72l6 16v524h-73v-639zM782 -16v-394 h72v406l-59 -6zM782 1235l29 76q12 35 31 53l12 10v264h-72v-403zM899 -4v-406h74v394l-15 6zM899 1374l14 -10q14 -16 31 -53l29 -76v403h-74v-264zM1018 -39v-371h72v326l-60 41zM1018 1114l6 -16q12 -27 17.5 -39t23.5 -33l25 -27v639h-72v-524zM1135 -117v-293h73v256 l-26 9l-31 18zM1135 954l61 -41l12 -4v729h-73v-684zM1253 -145v-265h72v926l-29 -51q-23 -47 -32 -88l-11 -60v-157l27 -203q2 -10 2 -27q0 -41 -14 -61zM1253 893l19 -6l53 -10v761h-72v-745zM1370 -408l47 5l27 8v1065l-74 -92v-986zM1370 868l19 -4l32 -10l23 -10v780 l-27 8l-47 4v-768zM1489 -379l43 25l29 22v1891l-29 24l-43 25v-1987zM1606 -283l14 15q55 82 55 180v1405q0 51 -14 96t-41 84l-14 14v-1794z" />
<glyph unicode="g" d="M80 -88q0 -51 14.5 -96t40.5 -84l12 -15v1794l-12 -14q-55 -82 -55 -180v-1405zM193 -332l30 -22l43 -25v911l-30 9l-27 16l-16 12v-901zM193 659l16 13l27 16l30 8v912l-43 -25l-30 -24v-900zM311 -395l27 -8l45 -5v519l-6 4q-16 16 -17 45q0 18 11 53l12 23v276l-72 6 v-913zM311 711l72 6v276l-10 23q-12 31 -13 55q0 27 17 43l6 4v518l-45 -4l-27 -8v-913zM428 100v-510h74v531l-41 -17zM428 305l35 43l39 33v143l-39 -10l-35 -2v-207zM428 717l35 -2l39 -10v143l-39 33l-35 43v-207zM428 1130l18 -2l29 -8l27 -14v532h-74v-508zM547 147 v-557h71v621l-8 -10l-51 -45zM547 412l18 12l13 6l40 25v98l-71 -16v-125zM547 692l71 -16v98l-40 25l-13 6l-18 12v-125zM547 1081l63 -53l8 -10v620h-71v-557zM664 266v-676h73v797l-45 -72l-6 -14zM664 483l32 21l41 24v54l-73 -19v-80zM664 666l6 -2l67 -17v53l-73 45 v-79zM664 963l22 -35l8 -15l43 -69v794h-73v-675zM782 41v-451h72v322l-18 12q-16 16 -33 49zM782 219l9 39l6 14l53 226l-21 4l-14 10l-33 -51v-242zM782 770l33 -53l14 10l21 4l-53 225l-6 15l-9 39v-240zM782 1186l21 69q16 35 35 50l16 12v321h-72v-452zM899 -88v-322 h74v453l-23 -70q-10 -27 -32 -49zM899 1317l19 -12q23 -23 32 -50l23 -67v450h-74v-321zM905 498l21 -90l32 -136l5 -14l10 -39v240l-33 53l-16 -10zM905 731l19 -4l16 -10l33 51v242l-8 -39l-7 -15l-32 -135zM1018 385v-795h72v676l-23 35l-6 14zM1018 528l41 -24l31 -21 v80l-72 19v-54zM1018 647l65 17l7 2v79l-72 -45v-53zM1018 842l43 71l6 15l23 35v675h-72v-796zM1135 209v-619h73v557l-14 9q-27 20 -49 45zM1135 455l41 -25l14 -6l18 -12v123l-73 18v-98zM1135 676l73 16v125l-18 -12l-14 -6l-41 -25v-98zM1135 1018l10 10l63 53v557h-73 v-620zM1253 121v-531h72v510l-31 4zM1253 381l39 -35l33 -41v207l-33 2l-39 10v-143zM1253 705l39 8l33 4v205l-33 -41l-39 -33v-143zM1253 1106l25 14l31 8l16 2v508h-72v-532zM1370 111v-519l47 5l27 8v913l-74 -6v-276l12 -23q6 -14 7.5 -28.5t3.5 -22.5q0 -31 -17 -47z M1370 717l74 -6v913l-27 8l-47 4v-518l8 -4q14 -16 15 -47q0 -29 -11 -51l-12 -23v-276zM1489 -379l43 25l29 22v901l-15 -12l-28 -16l-29 -11v-909zM1489 696l29 -8l28 -16l15 -13v900l-29 24l-43 25v-912zM1608 -283l12 15q55 82 55 180v1405q0 51 -14 96t-41 84l-12 14 v-1794z" />
<glyph unicode="h" d="M80 -88q0 -51 14.5 -96t40.5 -84l12 -15v1794l-12 -14q-55 -82 -55 -180v-1405zM193 -332l30 -22l43 -25v977l-73 23v-953zM193 625l73 24v959l-43 -25l-30 -24v-934zM311 -395l27 -8l45 -5v967l-72 25v-979zM311 664l72 22v950l-45 -4l-27 -8v-960zM428 152v-562h74v598 zM428 213l74 143v78l-33 96l-41 15v-332zM428 700l27 9l18 8l21 59l8 17v98l-74 141v-332zM428 1083l74 -36v591h-74v-555zM547 211v-621h71v658zM547 1022l71 -37v653h-71v-616zM664 256v-666h73v633l-22 6l-45 23zM664 971l51 28l22 7v632h-73v-667zM782 209v-619h72v416 l-66 201zM782 1020l6 2l66 201v415h-72v-618zM899 -16v-394h74v617l-6 -17zM899 1245l68 -207l6 -16v616h-74v-393zM1018 223v-633h72v666l-5 -4l-45 -23zM1018 1006l22 -7l50 -28v667h-72v-632zM1135 244v-654h73v617zM1135 989l73 37v612h-73v-649zM1253 184v-594h72v557z M1253 352l72 -141v334l-39 -13l-33 -98v-82zM1253 793l9 -17l18 -59l20 -8l25 -9v336l-72 -143v-100zM1253 1049l72 36v553h-72v-589zM1370 -408l47 5l27 8v979l-74 -25v-967zM1370 686l74 -22v960l-27 8l-47 4v-950zM1489 -379l43 25l29 22v953l-72 -23v-977zM1489 649 l72 -24v934l-29 24l-43 25v-959zM1606 -283l14 15q55 82 55 180v1405q0 51 -14 96t-41 84l-14 14v-1794z" />
<glyph unicode="i" d="M80 -88q0 -51 14.5 -96t40.5 -84l12 -15v1794l-12 -14q-55 -82 -55 -180v-1405zM193 -332l30 -22l43 -25v803l-6 381l6 803l-43 -25l-30 -24v-1891zM311 -395l27 -8l45 -5v832h-72v-819zM311 805h72v831l-45 -4l-27 -8v-819zM428 -410h74v834h-74v-834zM428 805h74v833 h-74v-833zM547 -410h71v834h-71v-834zM547 805h71v833h-71v-833zM664 -410h73v834h-73v-834zM664 805h73v833h-73v-833zM782 -410h72v834h-72v-834zM782 805h72v833h-72v-833zM899 -410h74v570l-53 -47v311h-21v-834zM899 805h21v311l53 -47v569h-74v-833zM1018 199v-609h72 v672zM1018 1030l72 -63v671h-72v-608zM1135 301v-711h73v775zM1135 928l71 -62l2 772h-73v-710zM1253 406v-816h72v879zM1253 823l72 -63v878h-72v-815zM1370 -408l47 5l27 8v966l-74 -63v-916zM1370 721l74 -64v967l-27 8l-47 4v-915zM1489 -379l43 25l29 22v1891l-29 24 l-43 25v-992v-4v-991zM1606 -283l14 15q55 82 55 180v1405q0 51 -14 96t-41 84l-14 14v-1794z" />
<glyph unicode="j" d="M80 -88q0 -51 14.5 -96t40.5 -84l12 -15v1794l-12 -14q-55 -82 -55 -180v-1405zM193 -332l30 -22l43 -25v1987l-43 -25l-30 -24v-1891zM311 -395l27 -8l45 -5v2044l-45 -4l-27 -8v-2019zM428 -410h74v287l-62 -53v328l62 55v815l-62 55v328l62 -55v288h-74v-2048z M547 -80v-330h71v396zM547 248l71 65v602l-71 66v-733zM547 1309l71 -66v395h-71v-329zM664 27v-437h73v502zM664 354l73 66v389l-73 65v-520zM664 1202l73 -65v501h-73v-436zM782 133v-543h72v609zM782 461l72 65v176l-72 66v-307zM782 1096l72 -66v608h-72v-542zM899 240 v-650h74v715zM899 567l51 47l-51 48v-95zM899 989l74 -65v714h-74v-649zM1018 346v-756h72v822zM1018 883l72 -66v821h-72v-755zM1135 -410h73v930l-73 -65v-865zM1135 774l73 -65v929h-73v-864zM1253 -410h72v2048h-72v-970l60 -54l-60 -53v-971zM1370 -408l47 5l27 8v2019 l-27 8l-47 4v-2044zM1489 -379l43 25l29 22v1891l-29 24l-43 25v-1987zM1606 -283l14 15q55 82 55 180v1405q0 51 -14 96t-41 84l-14 14v-1794z" />
<glyph unicode="k" d="M80 -88q0 -51 14.5 -96t40.5 -84l12 -15v1794l-12 -14q-55 -82 -55 -180v-1405zM193 -332l30 -22l43 -25v952l-43 41l43 41v953l-43 -25l-30 -24v-1891zM311 -395l27 -8l45 -5v863l-72 71v-921zM311 702l72 72v862l-45 -4l-27 -8v-922zM428 410v-820h74v746zM428 819 l74 72v747h-74v-819zM547 291v-701h71v629zM547 938l71 72v628h-71v-700zM664 174v-584h73v510zM664 1055l73 73v510h-73v-583zM782 55v-465h72v394zM782 1174l72 71v393h-72v-464zM899 -16v-394h74v465zM899 1245l74 -71v464h-74v-393zM1018 100v-510h72v584zM1018 1128 l72 -73v583h-72v-510zM1135 219v-629h73v701zM1135 1010l73 -72v700h-73v-628zM1253 336v-746h72v820zM1253 891l72 -72v819h-72v-747zM1370 -408l47 5l27 8v921l-74 -71v-863zM1370 774l74 -72v922l-27 8l-47 4v-862zM1489 -379l43 25l29 22v1891l-29 24l-43 25v-953 l41 -41l-41 -41v-952zM1606 -283l14 15q55 82 55 180v1405q0 51 -14 96t-41 84l-14 14v-1794z" />
<glyph unicode="l" d="M80 -88q0 -51 14.5 -96t40.5 -84l12 -15v1794l-12 -14q-55 -82 -55 -180v-1405zM193 -332l30 -22l43 -25v737l-33 48l33 161v1041l-43 -25l-30 -24v-1891zM311 293v-688l27 -8l45 -5v594zM311 799l49 256l23 12v569l-45 -4l-27 -8v-825zM428 121v-531h74v424zM428 1094 l74 41v503h-74v-544zM547 -51v-359h71v293h-28zM547 1159l71 41v438h-71v-479zM664 -117v-293h73v293h-73zM664 1225l73 41v372h-73v-413zM782 -117v-293h72v293h-72zM782 1292l72 39v307h-72v-346zM899 -117v-293h74v293h-74zM899 1331l74 -39v346h-74v-307zM1018 -117 v-293h72v293h-72zM1018 1266l72 -41v413h-72v-372zM1135 -117v-293h73v359l-45 -66h-28zM1135 1200l73 -41v479h-73v-438zM1253 14v-424h72v531zM1253 1135l72 -41v544h-72v-503zM1370 186v-594l47 5l27 8v688zM1370 1067l23 -12l51 -256v825l-27 8l-47 4v-569zM1489 358 v-737l43 25l29 22v1891l-29 24l-43 25v-1041l33 -161zM1608 -283l12 15q55 82 55 180v1405q0 51 -14 96t-41 84l-12 14v-1794z" />
<glyph unicode="m" d="M80 -88q0 -51 14.5 -96t40.5 -84l12 -15v1794l-12 -14q-55 -82 -55 -180v-1405zM193 -332l30 -22l43 -25v1051l-33 125l33 28v783l-43 -25l-30 -24v-1891zM311 -395l27 -8l45 -5v621l-72 283v-891zM311 868l72 66v702l-45 -4l-27 -8v-756zM428 37v-447h74v248h-23z M428 977l74 65v596h-74v-661zM547 -162v-248h71v248h-71zM547 1085l71 66v487h-71v-553zM664 -162v-248h73v248h-73zM664 1192l73 68v378h-73v-446zM782 -162v-248h72v248h-72zM782 1300l72 68v270h-72v-338zM899 -162v-248h74v248h-74zM899 1368l74 -68v338h-74v-270z M1018 -162v-248h72v248h-72zM1018 1260l72 -68v446h-72v-378zM1135 -162v-248h73v248h-73zM1135 1151l73 -66v553h-73v-487zM1253 -162v-248h72v447l-49 -199h-23zM1253 1042l72 -65v661h-72v-596zM1370 213v-621l47 5l27 8v891zM1370 934l74 -66v756l-27 8l-47 4v-702z M1489 -379l43 25l29 22v1891l-29 24l-43 25v-783l33 -28l-33 -125v-1051zM1606 -283l14 15q55 82 55 180v1405q0 51 -14 96t-41 84l-14 14v-1794z" />
<glyph unicode="n" d="M80 -88q0 -51 14.5 -96t40.5 -84l12 -15v1794l-12 -14q-55 -82 -55 -180v-1405zM193 -332l30 -22l43 -25v1987l-43 -25l-30 -24v-1891zM311 -395l27 -8l45 -5v879l-59 143l59 144v878l-45 -4l-27 -8v-2019zM428 365v-775h74v603zM428 864l74 172v602h-74v-774zM547 84 v-494h71v365h-18zM547 1145l53 129h18v364h-71v-493zM664 -45v-365h73v365h-73zM664 1274h73v364h-73v-364zM782 -45v-365h72v365h-72zM782 1274h72v364h-72v-364zM899 -45v-365h74v365h-74zM899 1274h74v364h-74v-364zM1018 -45v-365h72v365h-72zM1018 1274h72v364h-72 v-364zM1135 -45v-365h73v494l-55 -129h-18zM1135 1274h18l55 -129v493h-73v-364zM1253 193v-603h72v775zM1253 1036l72 -172v774h-72v-602zM1370 -408l47 5l27 8v2019l-27 8l-47 4v-878l62 -144l-62 -143v-879zM1489 -379l43 25l29 22v1891l-29 24l-43 25v-1987zM1606 -283 l14 15q55 82 55 180v1405q0 51 -14 96t-41 84l-14 14v-1794z" />
<glyph unicode="o" d="M80 -88q0 -51 14.5 -96t40.5 -84l12 -15v1794l-12 -14q-55 -82 -55 -180v-1405zM193 -332l30 -22l43 -25v928h-41v131h41v928l-43 -25l-30 -24v-1891zM311 -395l27 -8l45 -5v594l-12 13l12 14v336h-72v-944zM311 680h72v336l-12 14l12 12v594l-45 -4l-27 -8v-944z M428 139v-549h74v555l-41 -39zM428 258l74 72v219h-74v-291zM428 680h74v219l-74 72v-291zM428 1090l33 32l41 -41v557h-74v-548zM547 193v-603h71v674zM547 375l71 74v100h-71v-174zM547 680h71v100l-71 74v-174zM547 1036l71 -71v673h-71v-602zM664 309v-719h73v791z M664 494l57 55h-57v-55zM664 680h57l-57 55v-55zM664 920l73 -74v792h-73v-718zM782 -410h72v371h-41v496l-31 -29v-838zM782 801l31 -29v496h41v370h-72v-837zM899 -39v-371h74v838l-31 29v-496h-43zM899 1268h43v-496l31 29v837h-74v-370zM1018 381v-791h72v719zM1018 846 l72 74v718h-72v-792zM1034 549l56 -55v55h-56zM1034 680h56v55zM1135 264v-674h73v603zM1135 449l73 -74v174h-73v-100zM1135 680h73v174l-73 -74v-100zM1135 965l73 71v602h-73v-673zM1253 145v-555h72v549l-33 -33zM1253 330l72 -72v291h-72v-219zM1253 680h72v291 l-72 -72v-219zM1253 1081l39 41l33 -32v548h-72v-557zM1370 186v-594l47 5l27 8v944h-74v-336l14 -14zM1370 680h74v944l-27 8l-47 4v-594l14 -12l-14 -14v-336zM1489 -379l43 25l29 22v1891l-29 24l-43 25v-928h41v-131h-41v-928zM1606 -283l14 15q55 82 55 180v1405 q0 51 -14 96t-41 84l-14 14v-1794z" />
<glyph unicode="p" d="M80 -88q0 -51 14.5 -96t40.5 -84l12 -15v1794l-12 -14q-55 -82 -55 -180v-1405zM193 -332l30 -22l43 -25v1987l-43 -25l-30 -24v-1891zM311 -395l27 -8l45 -5v1102l-18 31l-25 47l-29 82v-1249zM311 1067l6 25q23 53 66 96v448l-45 -4l-27 -8v-557zM428 -410h74v940 l-21 25l-45 61l-8 9v-1035zM428 1227q12 8 24.5 15t26.5 11l23 7v378h-74v-411zM547 -410h71v787l-24 33l-47 61v-881zM547 1270l47 6l24 -4v366h-71v-368zM664 313v-723h73v603l-32 57zM664 1266q37 -8 65 -29l8 -6v407h-73v-372zM782 106v-516h72v373q-10 8 -29 51l-24 56 zM782 1192l37 -51q6 -8 14.5 -25.5t14.5 -38.5l6 -16v577h-72v-446zM899 -410h74v519l-19 -37l-26 -62q-14 -41 -25 -49zM899 1063l4 10l31 68l39 51v446h-74v-575zM1018 195v-605h72v725l-15 -24l-24 -41l-29 -49zM1018 1231l8 6q31 20 61 29l3 372h-72v-407zM1135 379 v-789h73v883l-41 -53zM1135 1272l24 4l49 -6v368h-73v-366zM1253 -410h72v1035l-6 -11l-45 -59l-21 -25v-940zM1253 1260l23 -7l49 -26v411h-72v-378zM1370 -408l47 5l27 8v1253l-29 -84l-24 -49l-21 -33v-1100zM1370 1190q47 -45 68 -98l6 -21v553l-27 8l-47 4v-446z M1489 -379l43 25l29 22v1891l-29 24l-43 25v-1987zM1606 -283l14 15q55 82 55 180v1405q0 51 -14 96t-41 84l-14 14v-1794z" />
<glyph unicode="q" d="M80 -88q0 -51 14.5 -96t40.5 -84l12 -15v1794l-12 -14q-55 -82 -55 -180v-1405zM193 -332l30 -22l43 -25v1987l-43 -25l-30 -24v-1891zM311 -395l27 -8l45 -5v269l-43 10l10 4l33 12v1454l-33 13l-10 4l43 10v268l-45 -4l-27 -8v-2019zM428 -96l47 16l27 14v1360l-27 15 l-47 16v-1421zM428 -147v-263h74v252l-8 2zM428 1376l66 8l8 2v252h-74v-262zM547 -41l41 23l30 24v1217l-30 22l-41 25v-1311zM547 -160v-250h71v252l-38 -2h-33zM547 1389h33l38 -3v252h-71v-249zM664 41l26 18l47 50v1009l-47 51l-26 19v-1147zM664 -410h73v263l-71 -9z M664 1384l73 -8v262h-73v-254zM782 -137v-273h72v291l-23 -6zM782 160l66 94l6 16v688l-6 17l-66 94v-909zM782 1366l49 -12l23 -8v292h-72v-272zM899 -102v-308h74v338l-64 -28zM899 367q45 122 45 247t-45 248v-495zM899 1331l10 -2l64 -29v338h-74v-307zM1018 -47v-363 h72v410l-37 -29zM1018 1276l35 -19l37 -28v409h-72v-362zM1135 35v-445h73v506l-30 -28zM1135 1194l43 -33l30 -31v508h-73v-444zM1253 147v-557h72v660l-45 -70zM1253 1081l27 -34l43 -64l2 655h-72v-557zM1370 344v-752l47 5l27 8v2019l-27 8l-47 4v-751l16 -41 q39 -113 39 -230q0 -115 -39 -231zM1489 -379l43 25l29 22v1891l-29 24l-43 25v-1987zM1606 -283l14 15q55 82 55 180v1405q0 51 -14 96t-41 84l-14 14v-1794z" />
<glyph unicode="r" d="M80 -88q0 -51 14.5 -96t40.5 -84l12 -15v1794l-12 -14q-55 -82 -55 -180v-1405zM193 -332l30 -22l43 -25v674h-33v639h33v674l-43 -25l-30 -24v-1891zM311 295v-690l27 -8l45 -5v703h-72zM311 934h72v702l-45 -4l-27 -8v-690zM428 295v-705h74v705h-74zM428 934h74v704 h-74v-704zM547 295v-705h71v381h-61v324h-10zM547 934h10v323h61v381h-71v-704zM664 -29v-381h73v381h-73zM664 1257h73v381h-73v-381zM782 -29v-381h72v381h-72zM782 1257h72v381h-72v-381zM899 -29v-381h74v381h-74zM899 1257h74v381h-74v-381zM1018 -29v-381h72v381h-72z M1018 1257h72v381h-72v-381zM1135 -29v-381h73v705h-12v-324h-61zM1135 1257h61v-323h12v704h-73v-381zM1253 295v-705h72v705h-72zM1253 934h72v704h-72v-704zM1370 295v-703l47 5l27 8v690h-74zM1370 934h74v690l-27 8l-47 4v-702zM1489 295v-674l43 25l29 22v1891l-29 24 l-43 25v-674h33v-639h-33zM1606 -283l14 15q55 82 55 180v1405q0 51 -14 96t-41 84l-14 14v-1794z" />
<glyph unicode="s" d="M80 -88q0 -51 14.5 -96t40.5 -84l12 -15v1794l-12 -14q-55 -82 -55 -180v-1405zM193 -332l30 -22l43 -25v1987l-43 -25l-30 -24v-1891zM311 -395l27 -8l45 -5v355l-33 -13l33 148v1065l-33 147l33 -12v354l-45 -4l-27 -8v-2019zM428 -37v-373h74v402zM428 281l74 319v29 l-74 319v-667zM428 1266l74 -29v401h-74v-372zM547 8v-418h71v447zM547 1221l71 -29v446h-71v-417zM664 53v-463h73v490zM664 1176l73 -27v489h-73v-462zM782 98v-508h72v535zM782 1130l72 -26v534h-72v-508zM899 125v-535h74v508zM899 1104l74 26v508h-74v-534zM1018 80 v-490h72v463zM1018 1149l72 27v462h-72v-489zM1135 37v-447h73v418zM1135 1192l73 29v417h-73v-446zM1253 -8v-402h72v373zM1253 600l72 -319v667l-72 -319v-29zM1253 1237l72 29v372h-72v-401zM1370 -53v-355l47 5l27 8v2019l-27 8l-47 4v-354l35 12l-35 -147v-1065 l35 -148zM1489 -379l43 25l29 22v1891l-29 24l-43 25v-1987zM1606 -283l14 15q55 82 55 180v1405q0 51 -14 96t-41 84l-14 14v-1794z" />
<glyph unicode="t" d="M80 -88q0 -51 14.5 -96t40.5 -84l12 -15v1794l-12 -14q-55 -82 -55 -180v-1405zM193 -332l30 -22l43 -25v1987l-43 -25l-30 -24v-1891zM311 -395l27 -8l45 -5v945l-45 65l45 70v964l-45 -4l-27 -8v-2019zM428 -410h74v781l-74 102v-883zM428 739l74 109v790h-74v-899z M547 307v-717h71v615zM547 915l71 111v612h-71v-723zM664 141v-551h73v449zM664 1094l73 108v436h-73v-544zM782 -27v-383h72v281zM782 1270l72 108v260h-72v-368zM899 -150v-260h74v369zM899 1358l74 -103v383h-74v-280zM1018 27v-437h72v545zM1018 1190l72 -103v551h-72 v-448zM1135 203v-613h73v721zM1135 1024l73 -102v716h-73v-614zM1253 381v-791h72v899zM1253 858l72 -102v882h-72v-780zM1370 -408l47 5l27 8v2019l-27 8l-47 4v-944l47 -65l-47 -70v-965zM1489 -379l43 25l29 22v1891l-29 24l-43 25v-1987zM1606 -283l14 15q55 82 55 180 v1405q0 51 -14 96t-41 84l-14 14v-1794z" />
<glyph unicode="u" d="M80 -88q0 -51 14.5 -96t40.5 -84l12 -15v1794l-12 -14q-55 -82 -55 -180v-1405zM193 -332l30 -22l43 -25v1987l-43 -25l-30 -24v-1891zM311 -395l27 -8l45 -5v930l-45 94l-27 54v-1065zM311 680h72v956l-45 -4l-27 -8v-944zM428 -410h74v693l-74 147v-840zM428 680h74 v958h-74v-958zM547 190v-600h71v455zM547 680h10l61 -123v1081h-71v-958zM664 -47v-363h73v332l-28 -57zM664 465l49 -96l24 49v1220h-73v-1173zM782 14v-424h72v572zM782 510l72 147v981h-72v-1128zM899 254v-664h74v811zM899 750l74 147v741h-74v-888zM1018 -410h72v1051 l-11 -25l-61 -122v-904zM1018 989l63 131l9 17v501h-72v-649zM1135 -410h73v1289l-73 -148v-1141zM1135 1227l69 141l4 270h-73v-411zM1253 -410h72v1528l-72 -147v-1381zM1253 1368h72v270h-72v-270zM1370 -408l47 5l27 8v1753l-74 -148v-1618zM1370 1368h74v256l-27 8 l-47 4v-268zM1489 -379l43 25l29 22v1891l-29 24l-43 25v-1987zM1606 -283l14 15q55 82 55 180v1405q0 51 -14 96t-41 84l-14 14v-1794z" />
<glyph unicode="v" d="M80 -88q0 -51 14.5 -96t40.5 -84l12 -15v1794l-12 -14q-55 -82 -55 -180v-1405zM193 -332l30 -22l43 -25v1987l-43 -25l-30 -24v-1891zM311 -395l27 -8l45 -5v2044l-45 -4l-27 -8v-2019zM428 -410h74v473l-27 48q-33 78 -33 172q0 113 52 211l8 10v1134h-74v-2048z M547 -2v-408h71v338l-49 41zM547 608l71 170v860h-71v-1030zM664 -100v-310h73v277l-30 8zM664 883l16 35l57 135v585h-73v-755zM782 -147v-263h72v252l-66 8zM782 1157l72 168v313h-72v-481zM899 -158v-252h74v263l-8 -3zM899 1335l74 -168v471h-74v-303zM1018 -133v-277 h72v310l-43 -25zM1018 1061l61 -143l11 -25v745h-72v-577zM1135 -72v-338h73v408l-22 -29zM1135 786l73 -168v1020h-73v-852zM1253 63v-473h72v2048h-72v-1124l23 -55q37 -86 37 -176t-35 -172zM1370 -408l47 5l27 8v2019l-27 8l-47 4v-2044zM1489 -379l43 25l29 22v1891 l-29 24l-43 25v-1987zM1606 -283l14 15q55 82 55 180v1405q0 51 -14 96t-41 84l-14 14v-1794z" />
<glyph unicode="w" d="M80 -88q0 -51 14.5 -96t40.5 -84l12 -15v1794l-12 -14q-55 -82 -55 -180v-1405zM193 -332l30 -22l43 -25v1987l-43 -25l-30 -24v-1891zM311 -395l27 -8l45 -5v1301l-4 178l4 565l-45 -4l-27 -8v-2019zM428 -410h74v1303h-74v-1303zM428 1071h74v567h-74v-567zM547 -410 h71v1303h-71v-1303zM547 1071h71v567h-71v-567zM664 -410h73v1303h-73v-1303zM664 1071h73v567h-73v-567zM782 -156v-254h72v254h-72zM782 1384h72v254h-72v-254zM899 -156v-254h74v254h-74zM899 1384h74v254h-74v-254zM1018 -410h72v1303h-72v-1303zM1018 1071h72v567h-72 v-567zM1135 -410h73v1303h-73v-1303zM1135 1071h73v567h-73v-567zM1253 -410h72v1303h-72v-1303zM1253 1071h72v567h-72v-567zM1370 -408l47 5l27 8v2019l-27 8l-47 4v-565l6 -178zM1489 -379l43 25l29 22v1891l-29 24l-43 25v-1987zM1606 -283l14 15q55 82 55 180v1405 q0 51 -14 96t-41 84l-14 14v-1794z" />
<glyph unicode="x" d="M80 -88q0 -51 14.5 -96t40.5 -84l12 -15v1794l-12 -14q-55 -82 -55 -180v-1405zM193 -332l30 -22l43 -25v1987l-43 -25l-30 -24v-1891zM311 -395l27 -8l45 -5v2044l-45 -4l-27 -8v-2019zM428 -410h74v252h-41l41 142v956l-6 51l6 66v581h-74v-2048zM547 139l71 250v316 l-24 22l-47 70v-658zM547 -158v-252h71v252h-71zM547 1186l14 26q6 10 21 29q6 8 24 29l12 10v358h-71v-452zM664 -158v-252h73v252h-73zM664 547l6 16l22 82l-28 19v-117zM664 1319l65 35l8 4v280h-73v-319zM782 -158v-252h72v252h-72zM782 1372l19 6l53 4v256h-72v-266z M899 -158v-252h74v252h-74zM899 1382l55 -4l19 -6v266h-74v-256zM1018 -158v-252h72v252h-72zM1018 1358l8 -4l64 -35v319h-72v-280zM1061 645l29 -98v117zM1135 -158v-252h73v252h-73zM1135 389l73 -250v658l-49 -70l-24 -22v-316zM1135 1280l12 -10q12 -12 24 -27 q6 -6 23 -31l14 -26v452h-73v-358zM1253 -16l41 -142h-41v-252h72v2048h-72v-581l7 -66l-7 -51v-956zM1370 -408l47 5l27 8v2019l-27 8l-47 4v-2044zM1489 -379l43 25l29 22v1891l-29 24l-43 25v-1987zM1606 -283l14 15q55 82 55 180v1405q0 51 -14 96t-41 84l-14 14v-1794z " />
<glyph unicode="y" d="M80 -88q0 -51 14.5 -96t40.5 -84l12 -15v1794l-12 -14q-55 -82 -55 -180v-1405zM193 -332l30 -22l43 -25v1987l-43 -25l-30 -24v-1891zM311 184v-579l27 -8l45 -5v521zM311 258l72 72v569l-72 72v-713zM311 1042l72 74v520l-45 -4l-27 -8v-582zM428 68v-478h74v439 l-17 -17zM428 375l74 74v331l-74 72v-477zM428 1161l57 56l17 -17v438h-74v-477zM547 74v-484h71v555zM547 494l71 71v99l-71 71v-241zM547 1155l71 -72v555h-71v-483zM664 190v-600h73v674zM664 1036l73 -71v673h-73v-602zM782 309v-719h72v791zM782 920l72 -72v790h-72 v-718zM899 381v-791h74v719zM899 848l74 72v718h-74v-790zM1018 264v-674h72v600zM1018 965l72 71v602h-72v-673zM1135 145v-555h73v484zM1135 565l73 -71v241l-73 -71v-99zM1135 1083l73 72v483h-73v-555zM1253 29v-439h72v478l-55 -56zM1253 449l72 -74v477l-72 -72v-331z M1253 1200l17 17l55 -56v477h-72v-438zM1370 113v-521l47 5l27 8v579zM1370 330l74 -72v713l-74 -72v-569zM1370 1116l74 -74v582l-27 8l-47 4v-520zM1489 -379l43 25l29 22v1891l-29 24l-43 25v-1987zM1606 -283l14 15q55 82 55 180v1405q0 51 -14 96t-41 84l-14 14v-1794z " />
<glyph unicode="z" d="M80 -88q0 -51 14.5 -96t40.5 -84l12 -15v1794l-12 -14q-55 -82 -55 -180v-1405zM193 -332l30 -22l43 -25v877l-73 73v-903zM193 657l73 74v877l-43 -25l-30 -24v-902zM311 -395l27 -8l45 -5v508h-21v301l-51 52v-848zM311 776l51 51v301h21v508l-45 -4l-27 -8v-848z M428 100v-510h74v510h-74zM428 1128h74v510h-74v-510zM547 100v-510h71v510h-71zM547 1128h71v510h-71v-510zM664 100v-510h73v437zM664 1128l73 74v436h-73v-510zM782 -18v-392h72v320zM782 1247l72 72v319h-72v-391zM899 -90v-320h74v392zM899 1319l74 -72v391h-74v-319z M1018 27v-437h72v510zM1018 1202l72 -74v510h-72v-436zM1135 100v-510h73v510h-73zM1135 1128h73v510h-73v-510zM1253 100v-510h72v510h-72zM1253 1128h72v510h-72v-510zM1370 100v-508l47 5l27 8v848l-53 -52v-301h-21zM1370 1128h21v-301l53 -51v848l-27 8l-47 4v-508z M1489 -379l43 25l29 22v903l-72 -73v-877zM1489 731l72 -74v902l-29 24l-43 25v-877zM1606 -283l14 15q55 82 55 180v1405q0 51 -14 96t-41 84l-14 14v-1794z" />
<glyph unicode="&#x2000;" horiz-adv-x="819" />
<glyph unicode="&#x2001;" horiz-adv-x="1638" />
<glyph unicode="&#x2002;" horiz-adv-x="819" />
<glyph unicode="&#x2003;" horiz-adv-x="1638" />
<glyph unicode="&#x2004;" horiz-adv-x="546" />
<glyph unicode="&#x2005;" horiz-adv-x="409" />
<glyph unicode="&#x2006;" horiz-adv-x="273" />
<glyph unicode="&#x2007;" horiz-adv-x="273" />
<glyph unicode="&#x2008;" horiz-adv-x="204" />
<glyph unicode="&#x2009;" horiz-adv-x="327" />
<glyph unicode="&#x200a;" horiz-adv-x="91" />
<glyph unicode="&#x202f;" horiz-adv-x="327" />
<glyph unicode="&#x205f;" horiz-adv-x="409" />
<glyph unicode="&#xe000;" horiz-adv-x="1638" d="M0 0v1638h1638v-1638h-1638z" />
</font>
</defs>
</svg>
